G04 #@! TF.GenerationSoftware,KiCad,Pcbnew,5.1.5*
G04 #@! TF.CreationDate,2019-11-23T16:08:54+01:00*
G04 #@! TF.ProjectId,powerbar,706f7765-7262-4617-922e-6b696361645f,rev?*
G04 #@! TF.SameCoordinates,Original*
G04 #@! TF.FileFunction,Copper,L1,Top*
G04 #@! TF.FilePolarity,Positive*
%FSLAX46Y46*%
G04 Gerber Fmt 4.6, Leading zero omitted, Abs format (unit mm)*
G04 Created by KiCad (PCBNEW 5.1.5) date 2019-11-23 16:08:54*
%MOMM*%
%LPD*%
G04 APERTURE LIST*
%ADD10C,0.100000*%
%ADD11O,3.600000X1.800000*%
%ADD12O,2.000000X1.700000*%
G04 APERTURE END LIST*
G04 #@! TA.AperFunction,ComponentPad*
D10*
G36*
X117144504Y-518531204D02*
G01*
X117168773Y-518534804D01*
X117192571Y-518540765D01*
X117215671Y-518549030D01*
X117237849Y-518559520D01*
X117258893Y-518572133D01*
X117278598Y-518586747D01*
X117296777Y-518603223D01*
X117313253Y-518621402D01*
X117327867Y-518641107D01*
X117340480Y-518662151D01*
X117350970Y-518684329D01*
X117359235Y-518707429D01*
X117365196Y-518731227D01*
X117368796Y-518755496D01*
X117370000Y-518780000D01*
X117370000Y-520080000D01*
X117368796Y-520104504D01*
X117365196Y-520128773D01*
X117359235Y-520152571D01*
X117350970Y-520175671D01*
X117340480Y-520197849D01*
X117327867Y-520218893D01*
X117313253Y-520238598D01*
X117296777Y-520256777D01*
X117278598Y-520273253D01*
X117258893Y-520287867D01*
X117237849Y-520300480D01*
X117215671Y-520310970D01*
X117192571Y-520319235D01*
X117168773Y-520325196D01*
X117144504Y-520328796D01*
X117120000Y-520330000D01*
X114020000Y-520330000D01*
X113995496Y-520328796D01*
X113971227Y-520325196D01*
X113947429Y-520319235D01*
X113924329Y-520310970D01*
X113902151Y-520300480D01*
X113881107Y-520287867D01*
X113861402Y-520273253D01*
X113843223Y-520256777D01*
X113826747Y-520238598D01*
X113812133Y-520218893D01*
X113799520Y-520197849D01*
X113789030Y-520175671D01*
X113780765Y-520152571D01*
X113774804Y-520128773D01*
X113771204Y-520104504D01*
X113770000Y-520080000D01*
X113770000Y-518780000D01*
X113771204Y-518755496D01*
X113774804Y-518731227D01*
X113780765Y-518707429D01*
X113789030Y-518684329D01*
X113799520Y-518662151D01*
X113812133Y-518641107D01*
X113826747Y-518621402D01*
X113843223Y-518603223D01*
X113861402Y-518586747D01*
X113881107Y-518572133D01*
X113902151Y-518559520D01*
X113924329Y-518549030D01*
X113947429Y-518540765D01*
X113971227Y-518534804D01*
X113995496Y-518531204D01*
X114020000Y-518530000D01*
X117120000Y-518530000D01*
X117144504Y-518531204D01*
G37*
G04 #@! TD.AperFunction*
D11*
X115570000Y-524510000D03*
G04 #@! TA.AperFunction,ComponentPad*
D10*
G36*
X134559505Y-519851204D02*
G01*
X134583774Y-519854804D01*
X134607572Y-519860765D01*
X134630672Y-519869030D01*
X134652850Y-519879520D01*
X134673894Y-519892133D01*
X134693599Y-519906747D01*
X134711778Y-519923223D01*
X134728254Y-519941402D01*
X134742868Y-519961107D01*
X134755481Y-519982151D01*
X134765971Y-520004329D01*
X134774236Y-520027429D01*
X134780197Y-520051227D01*
X134783797Y-520075496D01*
X134785001Y-520100000D01*
X134785001Y-521300000D01*
X134783797Y-521324504D01*
X134780197Y-521348773D01*
X134774236Y-521372571D01*
X134765971Y-521395671D01*
X134755481Y-521417849D01*
X134742868Y-521438893D01*
X134728254Y-521458598D01*
X134711778Y-521476777D01*
X134693599Y-521493253D01*
X134673894Y-521507867D01*
X134652850Y-521520480D01*
X134630672Y-521530970D01*
X134607572Y-521539235D01*
X134583774Y-521545196D01*
X134559505Y-521548796D01*
X134535001Y-521550000D01*
X133035001Y-521550000D01*
X133010497Y-521548796D01*
X132986228Y-521545196D01*
X132962430Y-521539235D01*
X132939330Y-521530970D01*
X132917152Y-521520480D01*
X132896108Y-521507867D01*
X132876403Y-521493253D01*
X132858224Y-521476777D01*
X132841748Y-521458598D01*
X132827134Y-521438893D01*
X132814521Y-521417849D01*
X132804031Y-521395671D01*
X132795766Y-521372571D01*
X132789805Y-521348773D01*
X132786205Y-521324504D01*
X132785001Y-521300000D01*
X132785001Y-520100000D01*
X132786205Y-520075496D01*
X132789805Y-520051227D01*
X132795766Y-520027429D01*
X132804031Y-520004329D01*
X132814521Y-519982151D01*
X132827134Y-519961107D01*
X132841748Y-519941402D01*
X132858224Y-519923223D01*
X132876403Y-519906747D01*
X132896108Y-519892133D01*
X132917152Y-519879520D01*
X132939330Y-519869030D01*
X132962430Y-519860765D01*
X132986228Y-519854804D01*
X133010497Y-519851204D01*
X133035001Y-519850000D01*
X134535001Y-519850000D01*
X134559505Y-519851204D01*
G37*
G04 #@! TD.AperFunction*
D12*
X133785001Y-523200000D03*
X143510000Y-523200000D03*
G04 #@! TA.AperFunction,ComponentPad*
D10*
G36*
X144284504Y-519851204D02*
G01*
X144308773Y-519854804D01*
X144332571Y-519860765D01*
X144355671Y-519869030D01*
X144377849Y-519879520D01*
X144398893Y-519892133D01*
X144418598Y-519906747D01*
X144436777Y-519923223D01*
X144453253Y-519941402D01*
X144467867Y-519961107D01*
X144480480Y-519982151D01*
X144490970Y-520004329D01*
X144499235Y-520027429D01*
X144505196Y-520051227D01*
X144508796Y-520075496D01*
X144510000Y-520100000D01*
X144510000Y-521300000D01*
X144508796Y-521324504D01*
X144505196Y-521348773D01*
X144499235Y-521372571D01*
X144490970Y-521395671D01*
X144480480Y-521417849D01*
X144467867Y-521438893D01*
X144453253Y-521458598D01*
X144436777Y-521476777D01*
X144418598Y-521493253D01*
X144398893Y-521507867D01*
X144377849Y-521520480D01*
X144355671Y-521530970D01*
X144332571Y-521539235D01*
X144308773Y-521545196D01*
X144284504Y-521548796D01*
X144260000Y-521550000D01*
X142760000Y-521550000D01*
X142735496Y-521548796D01*
X142711227Y-521545196D01*
X142687429Y-521539235D01*
X142664329Y-521530970D01*
X142642151Y-521520480D01*
X142621107Y-521507867D01*
X142601402Y-521493253D01*
X142583223Y-521476777D01*
X142566747Y-521458598D01*
X142552133Y-521438893D01*
X142539520Y-521417849D01*
X142529030Y-521395671D01*
X142520765Y-521372571D01*
X142514804Y-521348773D01*
X142511204Y-521324504D01*
X142510000Y-521300000D01*
X142510000Y-520100000D01*
X142511204Y-520075496D01*
X142514804Y-520051227D01*
X142520765Y-520027429D01*
X142529030Y-520004329D01*
X142539520Y-519982151D01*
X142552133Y-519961107D01*
X142566747Y-519941402D01*
X142583223Y-519923223D01*
X142601402Y-519906747D01*
X142621107Y-519892133D01*
X142642151Y-519879520D01*
X142664329Y-519869030D01*
X142687429Y-519860765D01*
X142711227Y-519854804D01*
X142735496Y-519851204D01*
X142760000Y-519850000D01*
X144260000Y-519850000D01*
X144284504Y-519851204D01*
G37*
G04 #@! TD.AperFunction*
G04 #@! TA.AperFunction,ComponentPad*
G36*
X154444504Y-519851204D02*
G01*
X154468773Y-519854804D01*
X154492571Y-519860765D01*
X154515671Y-519869030D01*
X154537849Y-519879520D01*
X154558893Y-519892133D01*
X154578598Y-519906747D01*
X154596777Y-519923223D01*
X154613253Y-519941402D01*
X154627867Y-519961107D01*
X154640480Y-519982151D01*
X154650970Y-520004329D01*
X154659235Y-520027429D01*
X154665196Y-520051227D01*
X154668796Y-520075496D01*
X154670000Y-520100000D01*
X154670000Y-521300000D01*
X154668796Y-521324504D01*
X154665196Y-521348773D01*
X154659235Y-521372571D01*
X154650970Y-521395671D01*
X154640480Y-521417849D01*
X154627867Y-521438893D01*
X154613253Y-521458598D01*
X154596777Y-521476777D01*
X154578598Y-521493253D01*
X154558893Y-521507867D01*
X154537849Y-521520480D01*
X154515671Y-521530970D01*
X154492571Y-521539235D01*
X154468773Y-521545196D01*
X154444504Y-521548796D01*
X154420000Y-521550000D01*
X152920000Y-521550000D01*
X152895496Y-521548796D01*
X152871227Y-521545196D01*
X152847429Y-521539235D01*
X152824329Y-521530970D01*
X152802151Y-521520480D01*
X152781107Y-521507867D01*
X152761402Y-521493253D01*
X152743223Y-521476777D01*
X152726747Y-521458598D01*
X152712133Y-521438893D01*
X152699520Y-521417849D01*
X152689030Y-521395671D01*
X152680765Y-521372571D01*
X152674804Y-521348773D01*
X152671204Y-521324504D01*
X152670000Y-521300000D01*
X152670000Y-520100000D01*
X152671204Y-520075496D01*
X152674804Y-520051227D01*
X152680765Y-520027429D01*
X152689030Y-520004329D01*
X152699520Y-519982151D01*
X152712133Y-519961107D01*
X152726747Y-519941402D01*
X152743223Y-519923223D01*
X152761402Y-519906747D01*
X152781107Y-519892133D01*
X152802151Y-519879520D01*
X152824329Y-519869030D01*
X152847429Y-519860765D01*
X152871227Y-519854804D01*
X152895496Y-519851204D01*
X152920000Y-519850000D01*
X154420000Y-519850000D01*
X154444504Y-519851204D01*
G37*
G04 #@! TD.AperFunction*
D12*
X153670000Y-523200000D03*
X163830000Y-523200000D03*
G04 #@! TA.AperFunction,ComponentPad*
D10*
G36*
X164604504Y-519851204D02*
G01*
X164628773Y-519854804D01*
X164652571Y-519860765D01*
X164675671Y-519869030D01*
X164697849Y-519879520D01*
X164718893Y-519892133D01*
X164738598Y-519906747D01*
X164756777Y-519923223D01*
X164773253Y-519941402D01*
X164787867Y-519961107D01*
X164800480Y-519982151D01*
X164810970Y-520004329D01*
X164819235Y-520027429D01*
X164825196Y-520051227D01*
X164828796Y-520075496D01*
X164830000Y-520100000D01*
X164830000Y-521300000D01*
X164828796Y-521324504D01*
X164825196Y-521348773D01*
X164819235Y-521372571D01*
X164810970Y-521395671D01*
X164800480Y-521417849D01*
X164787867Y-521438893D01*
X164773253Y-521458598D01*
X164756777Y-521476777D01*
X164738598Y-521493253D01*
X164718893Y-521507867D01*
X164697849Y-521520480D01*
X164675671Y-521530970D01*
X164652571Y-521539235D01*
X164628773Y-521545196D01*
X164604504Y-521548796D01*
X164580000Y-521550000D01*
X163080000Y-521550000D01*
X163055496Y-521548796D01*
X163031227Y-521545196D01*
X163007429Y-521539235D01*
X162984329Y-521530970D01*
X162962151Y-521520480D01*
X162941107Y-521507867D01*
X162921402Y-521493253D01*
X162903223Y-521476777D01*
X162886747Y-521458598D01*
X162872133Y-521438893D01*
X162859520Y-521417849D01*
X162849030Y-521395671D01*
X162840765Y-521372571D01*
X162834804Y-521348773D01*
X162831204Y-521324504D01*
X162830000Y-521300000D01*
X162830000Y-520100000D01*
X162831204Y-520075496D01*
X162834804Y-520051227D01*
X162840765Y-520027429D01*
X162849030Y-520004329D01*
X162859520Y-519982151D01*
X162872133Y-519961107D01*
X162886747Y-519941402D01*
X162903223Y-519923223D01*
X162921402Y-519906747D01*
X162941107Y-519892133D01*
X162962151Y-519879520D01*
X162984329Y-519869030D01*
X163007429Y-519860765D01*
X163031227Y-519854804D01*
X163055496Y-519851204D01*
X163080000Y-519850000D01*
X164580000Y-519850000D01*
X164604504Y-519851204D01*
G37*
G04 #@! TD.AperFunction*
G04 #@! TA.AperFunction,ComponentPad*
G36*
X174764504Y-519851204D02*
G01*
X174788773Y-519854804D01*
X174812571Y-519860765D01*
X174835671Y-519869030D01*
X174857849Y-519879520D01*
X174878893Y-519892133D01*
X174898598Y-519906747D01*
X174916777Y-519923223D01*
X174933253Y-519941402D01*
X174947867Y-519961107D01*
X174960480Y-519982151D01*
X174970970Y-520004329D01*
X174979235Y-520027429D01*
X174985196Y-520051227D01*
X174988796Y-520075496D01*
X174990000Y-520100000D01*
X174990000Y-521300000D01*
X174988796Y-521324504D01*
X174985196Y-521348773D01*
X174979235Y-521372571D01*
X174970970Y-521395671D01*
X174960480Y-521417849D01*
X174947867Y-521438893D01*
X174933253Y-521458598D01*
X174916777Y-521476777D01*
X174898598Y-521493253D01*
X174878893Y-521507867D01*
X174857849Y-521520480D01*
X174835671Y-521530970D01*
X174812571Y-521539235D01*
X174788773Y-521545196D01*
X174764504Y-521548796D01*
X174740000Y-521550000D01*
X173240000Y-521550000D01*
X173215496Y-521548796D01*
X173191227Y-521545196D01*
X173167429Y-521539235D01*
X173144329Y-521530970D01*
X173122151Y-521520480D01*
X173101107Y-521507867D01*
X173081402Y-521493253D01*
X173063223Y-521476777D01*
X173046747Y-521458598D01*
X173032133Y-521438893D01*
X173019520Y-521417849D01*
X173009030Y-521395671D01*
X173000765Y-521372571D01*
X172994804Y-521348773D01*
X172991204Y-521324504D01*
X172990000Y-521300000D01*
X172990000Y-520100000D01*
X172991204Y-520075496D01*
X172994804Y-520051227D01*
X173000765Y-520027429D01*
X173009030Y-520004329D01*
X173019520Y-519982151D01*
X173032133Y-519961107D01*
X173046747Y-519941402D01*
X173063223Y-519923223D01*
X173081402Y-519906747D01*
X173101107Y-519892133D01*
X173122151Y-519879520D01*
X173144329Y-519869030D01*
X173167429Y-519860765D01*
X173191227Y-519854804D01*
X173215496Y-519851204D01*
X173240000Y-519850000D01*
X174740000Y-519850000D01*
X174764504Y-519851204D01*
G37*
G04 #@! TD.AperFunction*
D12*
X173990000Y-523200000D03*
M02*
