G04 #@! TF.GenerationSoftware,KiCad,Pcbnew,5.1.5*
G04 #@! TF.CreationDate,2019-11-23T16:08:54+01:00*
G04 #@! TF.ProjectId,powerbar,706f7765-7262-4617-922e-6b696361645f,rev?*
G04 #@! TF.SameCoordinates,Original*
G04 #@! TF.FileFunction,Soldermask,Top*
G04 #@! TF.FilePolarity,Negative*
%FSLAX46Y46*%
G04 Gerber Fmt 4.6, Leading zero omitted, Abs format (unit mm)*
G04 Created by KiCad (PCBNEW 5.1.5) date 2019-11-23 16:08:54*
%MOMM*%
%LPD*%
G04 APERTURE LIST*
%ADD10C,0.100000*%
G04 APERTURE END LIST*
D10*
G36*
X117215256Y-530521298D02*
G01*
X117321579Y-530542447D01*
X117622042Y-530666903D01*
X117892451Y-530847585D01*
X118122415Y-531077549D01*
X118303097Y-531347958D01*
X118427553Y-531648421D01*
X118491000Y-531967391D01*
X118491000Y-532292609D01*
X118427553Y-532611579D01*
X118303097Y-532912042D01*
X118122415Y-533182451D01*
X117892451Y-533412415D01*
X117622042Y-533593097D01*
X117321579Y-533717553D01*
X117215256Y-533738702D01*
X117002611Y-533781000D01*
X116677389Y-533781000D01*
X116464744Y-533738702D01*
X116358421Y-533717553D01*
X116057958Y-533593097D01*
X115787549Y-533412415D01*
X115557585Y-533182451D01*
X115376903Y-532912042D01*
X115252447Y-532611579D01*
X115189000Y-532292609D01*
X115189000Y-531967391D01*
X115252447Y-531648421D01*
X115376903Y-531347958D01*
X115557585Y-531077549D01*
X115787549Y-530847585D01*
X116057958Y-530666903D01*
X116358421Y-530542447D01*
X116464744Y-530521298D01*
X116677389Y-530479000D01*
X117002611Y-530479000D01*
X117215256Y-530521298D01*
G37*
G36*
X173095256Y-530521298D02*
G01*
X173201579Y-530542447D01*
X173502042Y-530666903D01*
X173772451Y-530847585D01*
X174002415Y-531077549D01*
X174183097Y-531347958D01*
X174307553Y-531648421D01*
X174371000Y-531967391D01*
X174371000Y-532292609D01*
X174307553Y-532611579D01*
X174183097Y-532912042D01*
X174002415Y-533182451D01*
X173772451Y-533412415D01*
X173502042Y-533593097D01*
X173201579Y-533717553D01*
X173095256Y-533738702D01*
X172882611Y-533781000D01*
X172557389Y-533781000D01*
X172344744Y-533738702D01*
X172238421Y-533717553D01*
X171937958Y-533593097D01*
X171667549Y-533412415D01*
X171437585Y-533182451D01*
X171256903Y-532912042D01*
X171132447Y-532611579D01*
X171069000Y-532292609D01*
X171069000Y-531967391D01*
X171132447Y-531648421D01*
X171256903Y-531347958D01*
X171437585Y-531077549D01*
X171667549Y-530847585D01*
X171937958Y-530666903D01*
X172238421Y-530542447D01*
X172344744Y-530521298D01*
X172557389Y-530479000D01*
X172882611Y-530479000D01*
X173095256Y-530521298D01*
G37*
G36*
X116656425Y-523572760D02*
G01*
X116656428Y-523572761D01*
X116656429Y-523572761D01*
X116835693Y-523627140D01*
X116835696Y-523627142D01*
X116835697Y-523627142D01*
X117000903Y-523715446D01*
X117145712Y-523834288D01*
X117264554Y-523979097D01*
X117329712Y-524101000D01*
X117352860Y-524144307D01*
X117407239Y-524323571D01*
X117407240Y-524323575D01*
X117425601Y-524510000D01*
X117407240Y-524696425D01*
X117407239Y-524696428D01*
X117407239Y-524696429D01*
X117352860Y-524875693D01*
X117352858Y-524875696D01*
X117352858Y-524875697D01*
X117264554Y-525040903D01*
X117145712Y-525185712D01*
X117000903Y-525304554D01*
X116835697Y-525392858D01*
X116835693Y-525392860D01*
X116656429Y-525447239D01*
X116656428Y-525447239D01*
X116656425Y-525447240D01*
X116516718Y-525461000D01*
X114623282Y-525461000D01*
X114483575Y-525447240D01*
X114483572Y-525447239D01*
X114483571Y-525447239D01*
X114304307Y-525392860D01*
X114304303Y-525392858D01*
X114139097Y-525304554D01*
X113994288Y-525185712D01*
X113875446Y-525040903D01*
X113787142Y-524875697D01*
X113787142Y-524875696D01*
X113787140Y-524875693D01*
X113732761Y-524696429D01*
X113732761Y-524696428D01*
X113732760Y-524696425D01*
X113714399Y-524510000D01*
X113732760Y-524323575D01*
X113732761Y-524323571D01*
X113787140Y-524144307D01*
X113810288Y-524101000D01*
X113875446Y-523979097D01*
X113994288Y-523834288D01*
X114139097Y-523715446D01*
X114304303Y-523627142D01*
X114304304Y-523627142D01*
X114304307Y-523627140D01*
X114483571Y-523572761D01*
X114483572Y-523572761D01*
X114483575Y-523572760D01*
X114623282Y-523559000D01*
X116516718Y-523559000D01*
X116656425Y-523572760D01*
G37*
G36*
X174250443Y-522305519D02*
G01*
X174316627Y-522312037D01*
X174486466Y-522363557D01*
X174642991Y-522447222D01*
X174678729Y-522476552D01*
X174780186Y-522559814D01*
X174863448Y-522661271D01*
X174892778Y-522697009D01*
X174976443Y-522853534D01*
X175027963Y-523023373D01*
X175045359Y-523200000D01*
X175027963Y-523376627D01*
X174976443Y-523546466D01*
X174976442Y-523546468D01*
X174962388Y-523572761D01*
X174892778Y-523702991D01*
X174863448Y-523738729D01*
X174780186Y-523840186D01*
X174678729Y-523923448D01*
X174642991Y-523952778D01*
X174486466Y-524036443D01*
X174316627Y-524087963D01*
X174250442Y-524094482D01*
X174184260Y-524101000D01*
X173795740Y-524101000D01*
X173729558Y-524094482D01*
X173663373Y-524087963D01*
X173493534Y-524036443D01*
X173337009Y-523952778D01*
X173301271Y-523923448D01*
X173199814Y-523840186D01*
X173116552Y-523738729D01*
X173087222Y-523702991D01*
X173017612Y-523572761D01*
X173003558Y-523546468D01*
X173003557Y-523546466D01*
X172952037Y-523376627D01*
X172934641Y-523200000D01*
X172952037Y-523023373D01*
X173003557Y-522853534D01*
X173087222Y-522697009D01*
X173116552Y-522661271D01*
X173199814Y-522559814D01*
X173301271Y-522476552D01*
X173337009Y-522447222D01*
X173493534Y-522363557D01*
X173663373Y-522312037D01*
X173729557Y-522305519D01*
X173795740Y-522299000D01*
X174184260Y-522299000D01*
X174250443Y-522305519D01*
G37*
G36*
X164090443Y-522305519D02*
G01*
X164156627Y-522312037D01*
X164326466Y-522363557D01*
X164482991Y-522447222D01*
X164518729Y-522476552D01*
X164620186Y-522559814D01*
X164703448Y-522661271D01*
X164732778Y-522697009D01*
X164816443Y-522853534D01*
X164867963Y-523023373D01*
X164885359Y-523200000D01*
X164867963Y-523376627D01*
X164816443Y-523546466D01*
X164816442Y-523546468D01*
X164802388Y-523572761D01*
X164732778Y-523702991D01*
X164703448Y-523738729D01*
X164620186Y-523840186D01*
X164518729Y-523923448D01*
X164482991Y-523952778D01*
X164326466Y-524036443D01*
X164156627Y-524087963D01*
X164090442Y-524094482D01*
X164024260Y-524101000D01*
X163635740Y-524101000D01*
X163569558Y-524094482D01*
X163503373Y-524087963D01*
X163333534Y-524036443D01*
X163177009Y-523952778D01*
X163141271Y-523923448D01*
X163039814Y-523840186D01*
X162956552Y-523738729D01*
X162927222Y-523702991D01*
X162857612Y-523572761D01*
X162843558Y-523546468D01*
X162843557Y-523546466D01*
X162792037Y-523376627D01*
X162774641Y-523200000D01*
X162792037Y-523023373D01*
X162843557Y-522853534D01*
X162927222Y-522697009D01*
X162956552Y-522661271D01*
X163039814Y-522559814D01*
X163141271Y-522476552D01*
X163177009Y-522447222D01*
X163333534Y-522363557D01*
X163503373Y-522312037D01*
X163569557Y-522305519D01*
X163635740Y-522299000D01*
X164024260Y-522299000D01*
X164090443Y-522305519D01*
G37*
G36*
X153930443Y-522305519D02*
G01*
X153996627Y-522312037D01*
X154166466Y-522363557D01*
X154322991Y-522447222D01*
X154358729Y-522476552D01*
X154460186Y-522559814D01*
X154543448Y-522661271D01*
X154572778Y-522697009D01*
X154656443Y-522853534D01*
X154707963Y-523023373D01*
X154725359Y-523200000D01*
X154707963Y-523376627D01*
X154656443Y-523546466D01*
X154656442Y-523546468D01*
X154642388Y-523572761D01*
X154572778Y-523702991D01*
X154543448Y-523738729D01*
X154460186Y-523840186D01*
X154358729Y-523923448D01*
X154322991Y-523952778D01*
X154166466Y-524036443D01*
X153996627Y-524087963D01*
X153930442Y-524094482D01*
X153864260Y-524101000D01*
X153475740Y-524101000D01*
X153409558Y-524094482D01*
X153343373Y-524087963D01*
X153173534Y-524036443D01*
X153017009Y-523952778D01*
X152981271Y-523923448D01*
X152879814Y-523840186D01*
X152796552Y-523738729D01*
X152767222Y-523702991D01*
X152697612Y-523572761D01*
X152683558Y-523546468D01*
X152683557Y-523546466D01*
X152632037Y-523376627D01*
X152614641Y-523200000D01*
X152632037Y-523023373D01*
X152683557Y-522853534D01*
X152767222Y-522697009D01*
X152796552Y-522661271D01*
X152879814Y-522559814D01*
X152981271Y-522476552D01*
X153017009Y-522447222D01*
X153173534Y-522363557D01*
X153343373Y-522312037D01*
X153409557Y-522305519D01*
X153475740Y-522299000D01*
X153864260Y-522299000D01*
X153930443Y-522305519D01*
G37*
G36*
X143770443Y-522305519D02*
G01*
X143836627Y-522312037D01*
X144006466Y-522363557D01*
X144162991Y-522447222D01*
X144198729Y-522476552D01*
X144300186Y-522559814D01*
X144383448Y-522661271D01*
X144412778Y-522697009D01*
X144496443Y-522853534D01*
X144547963Y-523023373D01*
X144565359Y-523200000D01*
X144547963Y-523376627D01*
X144496443Y-523546466D01*
X144496442Y-523546468D01*
X144482388Y-523572761D01*
X144412778Y-523702991D01*
X144383448Y-523738729D01*
X144300186Y-523840186D01*
X144198729Y-523923448D01*
X144162991Y-523952778D01*
X144006466Y-524036443D01*
X143836627Y-524087963D01*
X143770442Y-524094482D01*
X143704260Y-524101000D01*
X143315740Y-524101000D01*
X143249558Y-524094482D01*
X143183373Y-524087963D01*
X143013534Y-524036443D01*
X142857009Y-523952778D01*
X142821271Y-523923448D01*
X142719814Y-523840186D01*
X142636552Y-523738729D01*
X142607222Y-523702991D01*
X142537612Y-523572761D01*
X142523558Y-523546468D01*
X142523557Y-523546466D01*
X142472037Y-523376627D01*
X142454641Y-523200000D01*
X142472037Y-523023373D01*
X142523557Y-522853534D01*
X142607222Y-522697009D01*
X142636552Y-522661271D01*
X142719814Y-522559814D01*
X142821271Y-522476552D01*
X142857009Y-522447222D01*
X143013534Y-522363557D01*
X143183373Y-522312037D01*
X143249557Y-522305519D01*
X143315740Y-522299000D01*
X143704260Y-522299000D01*
X143770443Y-522305519D01*
G37*
G36*
X134045444Y-522305519D02*
G01*
X134111628Y-522312037D01*
X134281467Y-522363557D01*
X134437992Y-522447222D01*
X134473730Y-522476552D01*
X134575187Y-522559814D01*
X134658449Y-522661271D01*
X134687779Y-522697009D01*
X134771444Y-522853534D01*
X134822964Y-523023373D01*
X134840360Y-523200000D01*
X134822964Y-523376627D01*
X134771444Y-523546466D01*
X134771443Y-523546468D01*
X134757389Y-523572761D01*
X134687779Y-523702991D01*
X134658449Y-523738729D01*
X134575187Y-523840186D01*
X134473730Y-523923448D01*
X134437992Y-523952778D01*
X134281467Y-524036443D01*
X134111628Y-524087963D01*
X134045443Y-524094482D01*
X133979261Y-524101000D01*
X133590741Y-524101000D01*
X133524559Y-524094482D01*
X133458374Y-524087963D01*
X133288535Y-524036443D01*
X133132010Y-523952778D01*
X133096272Y-523923448D01*
X132994815Y-523840186D01*
X132911553Y-523738729D01*
X132882223Y-523702991D01*
X132812613Y-523572761D01*
X132798559Y-523546468D01*
X132798558Y-523546466D01*
X132747038Y-523376627D01*
X132729642Y-523200000D01*
X132747038Y-523023373D01*
X132798558Y-522853534D01*
X132882223Y-522697009D01*
X132911553Y-522661271D01*
X132994815Y-522559814D01*
X133096272Y-522476552D01*
X133132010Y-522447222D01*
X133288535Y-522363557D01*
X133458374Y-522312037D01*
X133524558Y-522305519D01*
X133590741Y-522299000D01*
X133979261Y-522299000D01*
X134045444Y-522305519D01*
G37*
G36*
X174898600Y-519802989D02*
G01*
X174931652Y-519813015D01*
X174962103Y-519829292D01*
X174988799Y-519851201D01*
X175010708Y-519877897D01*
X175026985Y-519908348D01*
X175037011Y-519941400D01*
X175041000Y-519981903D01*
X175041000Y-521418097D01*
X175037011Y-521458600D01*
X175026985Y-521491652D01*
X175010708Y-521522103D01*
X174988799Y-521548799D01*
X174962103Y-521570708D01*
X174931652Y-521586985D01*
X174898600Y-521597011D01*
X174858097Y-521601000D01*
X173121903Y-521601000D01*
X173081400Y-521597011D01*
X173048348Y-521586985D01*
X173017897Y-521570708D01*
X172991201Y-521548799D01*
X172969292Y-521522103D01*
X172953015Y-521491652D01*
X172942989Y-521458600D01*
X172939000Y-521418097D01*
X172939000Y-519981903D01*
X172942989Y-519941400D01*
X172953015Y-519908348D01*
X172969292Y-519877897D01*
X172991201Y-519851201D01*
X173017897Y-519829292D01*
X173048348Y-519813015D01*
X173081400Y-519802989D01*
X173121903Y-519799000D01*
X174858097Y-519799000D01*
X174898600Y-519802989D01*
G37*
G36*
X164738600Y-519802989D02*
G01*
X164771652Y-519813015D01*
X164802103Y-519829292D01*
X164828799Y-519851201D01*
X164850708Y-519877897D01*
X164866985Y-519908348D01*
X164877011Y-519941400D01*
X164881000Y-519981903D01*
X164881000Y-521418097D01*
X164877011Y-521458600D01*
X164866985Y-521491652D01*
X164850708Y-521522103D01*
X164828799Y-521548799D01*
X164802103Y-521570708D01*
X164771652Y-521586985D01*
X164738600Y-521597011D01*
X164698097Y-521601000D01*
X162961903Y-521601000D01*
X162921400Y-521597011D01*
X162888348Y-521586985D01*
X162857897Y-521570708D01*
X162831201Y-521548799D01*
X162809292Y-521522103D01*
X162793015Y-521491652D01*
X162782989Y-521458600D01*
X162779000Y-521418097D01*
X162779000Y-519981903D01*
X162782989Y-519941400D01*
X162793015Y-519908348D01*
X162809292Y-519877897D01*
X162831201Y-519851201D01*
X162857897Y-519829292D01*
X162888348Y-519813015D01*
X162921400Y-519802989D01*
X162961903Y-519799000D01*
X164698097Y-519799000D01*
X164738600Y-519802989D01*
G37*
G36*
X154578600Y-519802989D02*
G01*
X154611652Y-519813015D01*
X154642103Y-519829292D01*
X154668799Y-519851201D01*
X154690708Y-519877897D01*
X154706985Y-519908348D01*
X154717011Y-519941400D01*
X154721000Y-519981903D01*
X154721000Y-521418097D01*
X154717011Y-521458600D01*
X154706985Y-521491652D01*
X154690708Y-521522103D01*
X154668799Y-521548799D01*
X154642103Y-521570708D01*
X154611652Y-521586985D01*
X154578600Y-521597011D01*
X154538097Y-521601000D01*
X152801903Y-521601000D01*
X152761400Y-521597011D01*
X152728348Y-521586985D01*
X152697897Y-521570708D01*
X152671201Y-521548799D01*
X152649292Y-521522103D01*
X152633015Y-521491652D01*
X152622989Y-521458600D01*
X152619000Y-521418097D01*
X152619000Y-519981903D01*
X152622989Y-519941400D01*
X152633015Y-519908348D01*
X152649292Y-519877897D01*
X152671201Y-519851201D01*
X152697897Y-519829292D01*
X152728348Y-519813015D01*
X152761400Y-519802989D01*
X152801903Y-519799000D01*
X154538097Y-519799000D01*
X154578600Y-519802989D01*
G37*
G36*
X144418600Y-519802989D02*
G01*
X144451652Y-519813015D01*
X144482103Y-519829292D01*
X144508799Y-519851201D01*
X144530708Y-519877897D01*
X144546985Y-519908348D01*
X144557011Y-519941400D01*
X144561000Y-519981903D01*
X144561000Y-521418097D01*
X144557011Y-521458600D01*
X144546985Y-521491652D01*
X144530708Y-521522103D01*
X144508799Y-521548799D01*
X144482103Y-521570708D01*
X144451652Y-521586985D01*
X144418600Y-521597011D01*
X144378097Y-521601000D01*
X142641903Y-521601000D01*
X142601400Y-521597011D01*
X142568348Y-521586985D01*
X142537897Y-521570708D01*
X142511201Y-521548799D01*
X142489292Y-521522103D01*
X142473015Y-521491652D01*
X142462989Y-521458600D01*
X142459000Y-521418097D01*
X142459000Y-519981903D01*
X142462989Y-519941400D01*
X142473015Y-519908348D01*
X142489292Y-519877897D01*
X142511201Y-519851201D01*
X142537897Y-519829292D01*
X142568348Y-519813015D01*
X142601400Y-519802989D01*
X142641903Y-519799000D01*
X144378097Y-519799000D01*
X144418600Y-519802989D01*
G37*
G36*
X134693601Y-519802989D02*
G01*
X134726653Y-519813015D01*
X134757104Y-519829292D01*
X134783800Y-519851201D01*
X134805709Y-519877897D01*
X134821986Y-519908348D01*
X134832012Y-519941400D01*
X134836001Y-519981903D01*
X134836001Y-521418097D01*
X134832012Y-521458600D01*
X134821986Y-521491652D01*
X134805709Y-521522103D01*
X134783800Y-521548799D01*
X134757104Y-521570708D01*
X134726653Y-521586985D01*
X134693601Y-521597011D01*
X134653098Y-521601000D01*
X132916904Y-521601000D01*
X132876401Y-521597011D01*
X132843349Y-521586985D01*
X132812898Y-521570708D01*
X132786202Y-521548799D01*
X132764293Y-521522103D01*
X132748016Y-521491652D01*
X132737990Y-521458600D01*
X132734001Y-521418097D01*
X132734001Y-519981903D01*
X132737990Y-519941400D01*
X132748016Y-519908348D01*
X132764293Y-519877897D01*
X132786202Y-519851201D01*
X132812898Y-519829292D01*
X132843349Y-519813015D01*
X132876401Y-519802989D01*
X132916904Y-519799000D01*
X134653098Y-519799000D01*
X134693601Y-519802989D01*
G37*
G36*
X117280915Y-518482934D02*
G01*
X117313424Y-518492795D01*
X117343382Y-518508809D01*
X117369641Y-518530359D01*
X117391191Y-518556618D01*
X117407205Y-518586576D01*
X117417066Y-518619085D01*
X117421000Y-518659029D01*
X117421000Y-520200971D01*
X117417066Y-520240915D01*
X117407205Y-520273424D01*
X117391191Y-520303382D01*
X117369641Y-520329641D01*
X117343382Y-520351191D01*
X117313424Y-520367205D01*
X117280915Y-520377066D01*
X117240971Y-520381000D01*
X113899029Y-520381000D01*
X113859085Y-520377066D01*
X113826576Y-520367205D01*
X113796618Y-520351191D01*
X113770359Y-520329641D01*
X113748809Y-520303382D01*
X113732795Y-520273424D01*
X113722934Y-520240915D01*
X113719000Y-520200971D01*
X113719000Y-518659029D01*
X113722934Y-518619085D01*
X113732795Y-518586576D01*
X113748809Y-518556618D01*
X113770359Y-518530359D01*
X113796618Y-518508809D01*
X113826576Y-518492795D01*
X113859085Y-518482934D01*
X113899029Y-518479000D01*
X117240971Y-518479000D01*
X117280915Y-518482934D01*
G37*
G36*
X173095256Y-510201298D02*
G01*
X173201579Y-510222447D01*
X173502042Y-510346903D01*
X173772451Y-510527585D01*
X174002415Y-510757549D01*
X174183097Y-511027958D01*
X174307553Y-511328421D01*
X174371000Y-511647391D01*
X174371000Y-511972609D01*
X174307553Y-512291579D01*
X174183097Y-512592042D01*
X174002415Y-512862451D01*
X173772451Y-513092415D01*
X173502042Y-513273097D01*
X173201579Y-513397553D01*
X173095256Y-513418702D01*
X172882611Y-513461000D01*
X172557389Y-513461000D01*
X172344744Y-513418702D01*
X172238421Y-513397553D01*
X171937958Y-513273097D01*
X171667549Y-513092415D01*
X171437585Y-512862451D01*
X171256903Y-512592042D01*
X171132447Y-512291579D01*
X171069000Y-511972609D01*
X171069000Y-511647391D01*
X171132447Y-511328421D01*
X171256903Y-511027958D01*
X171437585Y-510757549D01*
X171667549Y-510527585D01*
X171937958Y-510346903D01*
X172238421Y-510222447D01*
X172344744Y-510201298D01*
X172557389Y-510159000D01*
X172882611Y-510159000D01*
X173095256Y-510201298D01*
G37*
G36*
X117215256Y-510201298D02*
G01*
X117321579Y-510222447D01*
X117622042Y-510346903D01*
X117892451Y-510527585D01*
X118122415Y-510757549D01*
X118303097Y-511027958D01*
X118427553Y-511328421D01*
X118491000Y-511647391D01*
X118491000Y-511972609D01*
X118427553Y-512291579D01*
X118303097Y-512592042D01*
X118122415Y-512862451D01*
X117892451Y-513092415D01*
X117622042Y-513273097D01*
X117321579Y-513397553D01*
X117215256Y-513418702D01*
X117002611Y-513461000D01*
X116677389Y-513461000D01*
X116464744Y-513418702D01*
X116358421Y-513397553D01*
X116057958Y-513273097D01*
X115787549Y-513092415D01*
X115557585Y-512862451D01*
X115376903Y-512592042D01*
X115252447Y-512291579D01*
X115189000Y-511972609D01*
X115189000Y-511647391D01*
X115252447Y-511328421D01*
X115376903Y-511027958D01*
X115557585Y-510757549D01*
X115787549Y-510527585D01*
X116057958Y-510346903D01*
X116358421Y-510222447D01*
X116464744Y-510201298D01*
X116677389Y-510159000D01*
X117002611Y-510159000D01*
X117215256Y-510201298D01*
G37*
M02*
