G04 #@! TF.GenerationSoftware,KiCad,Pcbnew,5.1.5*
G04 #@! TF.CreationDate,2019-11-23T16:08:54+01:00*
G04 #@! TF.ProjectId,powerbar,706f7765-7262-4617-922e-6b696361645f,rev?*
G04 #@! TF.SameCoordinates,Original*
G04 #@! TF.FileFunction,Legend,Top*
G04 #@! TF.FilePolarity,Positive*
%FSLAX46Y46*%
G04 Gerber Fmt 4.6, Leading zero omitted, Abs format (unit mm)*
G04 Created by KiCad (PCBNEW 5.1.5) date 2019-11-23 16:08:54*
%MOMM*%
%LPD*%
G04 APERTURE LIST*
%ADD10C,0.120000*%
%ADD11C,0.150000*%
G04 APERTURE END LIST*
D10*
X113420155Y-520179647D02*
G75*
G03X113420000Y-518680000I-1700155J749647D01*
G01*
X113420155Y-525259647D02*
G75*
G03X113420000Y-523760000I-1700155J749647D01*
G01*
X120030000Y-516780000D02*
X112560000Y-516780000D01*
X112560000Y-516780000D02*
X112560000Y-527160000D01*
X112560000Y-527160000D02*
X120030000Y-527160000D01*
X120030000Y-527160000D02*
X120030000Y-516780000D01*
X113420000Y-518680000D02*
X113420000Y-517930000D01*
X113420000Y-517930000D02*
X117720000Y-517930000D01*
X117720000Y-517930000D02*
X117720000Y-518680000D01*
X117720000Y-518680000D02*
X118070000Y-518680000D01*
X118070000Y-518680000D02*
X118070000Y-518180000D01*
X118070000Y-518180000D02*
X119070000Y-517930000D01*
X119070000Y-517930000D02*
X119070000Y-520930000D01*
X119070000Y-520930000D02*
X118070000Y-520680000D01*
X118070000Y-520680000D02*
X118070000Y-520180000D01*
X118070000Y-520180000D02*
X117720000Y-520180000D01*
X117720000Y-520180000D02*
X117720000Y-520930000D01*
X117720000Y-520930000D02*
X113420000Y-520930000D01*
X113420000Y-520930000D02*
X113420000Y-520180000D01*
X113420000Y-523760000D02*
X113420000Y-523010000D01*
X113420000Y-523010000D02*
X117720000Y-523010000D01*
X117720000Y-523010000D02*
X117720000Y-523760000D01*
X117720000Y-523760000D02*
X118070000Y-523760000D01*
X118070000Y-523760000D02*
X118070000Y-523260000D01*
X118070000Y-523260000D02*
X119070000Y-523010000D01*
X119070000Y-523010000D02*
X119070000Y-526010000D01*
X119070000Y-526010000D02*
X118070000Y-525760000D01*
X118070000Y-525760000D02*
X118070000Y-525260000D01*
X118070000Y-525260000D02*
X117720000Y-525260000D01*
X117720000Y-525260000D02*
X117720000Y-526010000D01*
X117720000Y-526010000D02*
X113420000Y-526010000D01*
X113420000Y-526010000D02*
X113420000Y-525260000D01*
X119170000Y-516390000D02*
X120420000Y-516390000D01*
X120420000Y-516390000D02*
X120420000Y-518390000D01*
X136245001Y-518140000D02*
X130275001Y-518140000D01*
X130275001Y-518140000D02*
X130275001Y-525760000D01*
X130275001Y-525760000D02*
X136245001Y-525760000D01*
X136245001Y-525760000D02*
X136245001Y-518140000D01*
X136235001Y-521450000D02*
X135485001Y-521450000D01*
X135485001Y-521450000D02*
X135485001Y-522450000D01*
X135485001Y-522450000D02*
X136235001Y-522450000D01*
X136235001Y-522450000D02*
X136235001Y-521450000D01*
X136235001Y-518150000D02*
X135485001Y-518150000D01*
X135485001Y-518150000D02*
X135485001Y-519950000D01*
X135485001Y-519950000D02*
X136235001Y-519950000D01*
X136235001Y-519950000D02*
X136235001Y-518150000D01*
X136235001Y-523950000D02*
X135485001Y-523950000D01*
X135485001Y-523950000D02*
X135485001Y-525750000D01*
X135485001Y-525750000D02*
X136235001Y-525750000D01*
X136235001Y-525750000D02*
X136235001Y-523950000D01*
X133985001Y-518150000D02*
X133985001Y-518900000D01*
X133985001Y-518900000D02*
X131035001Y-518900000D01*
X131035001Y-518900000D02*
X131035001Y-521950000D01*
X133985001Y-525750000D02*
X133985001Y-525000000D01*
X133985001Y-525000000D02*
X131035001Y-525000000D01*
X131035001Y-525000000D02*
X131035001Y-521950000D01*
X136535001Y-519100000D02*
X136535001Y-517850000D01*
X136535001Y-517850000D02*
X135285001Y-517850000D01*
X146260000Y-517850000D02*
X145010000Y-517850000D01*
X146260000Y-519100000D02*
X146260000Y-517850000D01*
X140760000Y-525000000D02*
X140760000Y-521950000D01*
X143710000Y-525000000D02*
X140760000Y-525000000D01*
X143710000Y-525750000D02*
X143710000Y-525000000D01*
X140760000Y-518900000D02*
X140760000Y-521950000D01*
X143710000Y-518900000D02*
X140760000Y-518900000D01*
X143710000Y-518150000D02*
X143710000Y-518900000D01*
X145960000Y-525750000D02*
X145960000Y-523950000D01*
X145210000Y-525750000D02*
X145960000Y-525750000D01*
X145210000Y-523950000D02*
X145210000Y-525750000D01*
X145960000Y-523950000D02*
X145210000Y-523950000D01*
X145960000Y-519950000D02*
X145960000Y-518150000D01*
X145210000Y-519950000D02*
X145960000Y-519950000D01*
X145210000Y-518150000D02*
X145210000Y-519950000D01*
X145960000Y-518150000D02*
X145210000Y-518150000D01*
X145960000Y-522450000D02*
X145960000Y-521450000D01*
X145210000Y-522450000D02*
X145960000Y-522450000D01*
X145210000Y-521450000D02*
X145210000Y-522450000D01*
X145960000Y-521450000D02*
X145210000Y-521450000D01*
X145970000Y-525760000D02*
X145970000Y-518140000D01*
X140000000Y-525760000D02*
X145970000Y-525760000D01*
X140000000Y-518140000D02*
X140000000Y-525760000D01*
X145970000Y-518140000D02*
X140000000Y-518140000D01*
X156130000Y-518140000D02*
X150160000Y-518140000D01*
X150160000Y-518140000D02*
X150160000Y-525760000D01*
X150160000Y-525760000D02*
X156130000Y-525760000D01*
X156130000Y-525760000D02*
X156130000Y-518140000D01*
X156120000Y-521450000D02*
X155370000Y-521450000D01*
X155370000Y-521450000D02*
X155370000Y-522450000D01*
X155370000Y-522450000D02*
X156120000Y-522450000D01*
X156120000Y-522450000D02*
X156120000Y-521450000D01*
X156120000Y-518150000D02*
X155370000Y-518150000D01*
X155370000Y-518150000D02*
X155370000Y-519950000D01*
X155370000Y-519950000D02*
X156120000Y-519950000D01*
X156120000Y-519950000D02*
X156120000Y-518150000D01*
X156120000Y-523950000D02*
X155370000Y-523950000D01*
X155370000Y-523950000D02*
X155370000Y-525750000D01*
X155370000Y-525750000D02*
X156120000Y-525750000D01*
X156120000Y-525750000D02*
X156120000Y-523950000D01*
X153870000Y-518150000D02*
X153870000Y-518900000D01*
X153870000Y-518900000D02*
X150920000Y-518900000D01*
X150920000Y-518900000D02*
X150920000Y-521950000D01*
X153870000Y-525750000D02*
X153870000Y-525000000D01*
X153870000Y-525000000D02*
X150920000Y-525000000D01*
X150920000Y-525000000D02*
X150920000Y-521950000D01*
X156420000Y-519100000D02*
X156420000Y-517850000D01*
X156420000Y-517850000D02*
X155170000Y-517850000D01*
X166580000Y-517850000D02*
X165330000Y-517850000D01*
X166580000Y-519100000D02*
X166580000Y-517850000D01*
X161080000Y-525000000D02*
X161080000Y-521950000D01*
X164030000Y-525000000D02*
X161080000Y-525000000D01*
X164030000Y-525750000D02*
X164030000Y-525000000D01*
X161080000Y-518900000D02*
X161080000Y-521950000D01*
X164030000Y-518900000D02*
X161080000Y-518900000D01*
X164030000Y-518150000D02*
X164030000Y-518900000D01*
X166280000Y-525750000D02*
X166280000Y-523950000D01*
X165530000Y-525750000D02*
X166280000Y-525750000D01*
X165530000Y-523950000D02*
X165530000Y-525750000D01*
X166280000Y-523950000D02*
X165530000Y-523950000D01*
X166280000Y-519950000D02*
X166280000Y-518150000D01*
X165530000Y-519950000D02*
X166280000Y-519950000D01*
X165530000Y-518150000D02*
X165530000Y-519950000D01*
X166280000Y-518150000D02*
X165530000Y-518150000D01*
X166280000Y-522450000D02*
X166280000Y-521450000D01*
X165530000Y-522450000D02*
X166280000Y-522450000D01*
X165530000Y-521450000D02*
X165530000Y-522450000D01*
X166280000Y-521450000D02*
X165530000Y-521450000D01*
X166290000Y-525760000D02*
X166290000Y-518140000D01*
X160320000Y-525760000D02*
X166290000Y-525760000D01*
X160320000Y-518140000D02*
X160320000Y-525760000D01*
X166290000Y-518140000D02*
X160320000Y-518140000D01*
X176450000Y-518140000D02*
X170480000Y-518140000D01*
X170480000Y-518140000D02*
X170480000Y-525760000D01*
X170480000Y-525760000D02*
X176450000Y-525760000D01*
X176450000Y-525760000D02*
X176450000Y-518140000D01*
X176440000Y-521450000D02*
X175690000Y-521450000D01*
X175690000Y-521450000D02*
X175690000Y-522450000D01*
X175690000Y-522450000D02*
X176440000Y-522450000D01*
X176440000Y-522450000D02*
X176440000Y-521450000D01*
X176440000Y-518150000D02*
X175690000Y-518150000D01*
X175690000Y-518150000D02*
X175690000Y-519950000D01*
X175690000Y-519950000D02*
X176440000Y-519950000D01*
X176440000Y-519950000D02*
X176440000Y-518150000D01*
X176440000Y-523950000D02*
X175690000Y-523950000D01*
X175690000Y-523950000D02*
X175690000Y-525750000D01*
X175690000Y-525750000D02*
X176440000Y-525750000D01*
X176440000Y-525750000D02*
X176440000Y-523950000D01*
X174190000Y-518150000D02*
X174190000Y-518900000D01*
X174190000Y-518900000D02*
X171240000Y-518900000D01*
X171240000Y-518900000D02*
X171240000Y-521950000D01*
X174190000Y-525750000D02*
X174190000Y-525000000D01*
X174190000Y-525000000D02*
X171240000Y-525000000D01*
X171240000Y-525000000D02*
X171240000Y-521950000D01*
X176740000Y-519100000D02*
X176740000Y-517850000D01*
X176740000Y-517850000D02*
X175490000Y-517850000D01*
D11*
X116078095Y-508062380D02*
X116078095Y-507062380D01*
X116078095Y-507538571D02*
X116649523Y-507538571D01*
X116649523Y-508062380D02*
X116649523Y-507062380D01*
X117649523Y-508062380D02*
X117078095Y-508062380D01*
X117363809Y-508062380D02*
X117363809Y-507062380D01*
X117268571Y-507205238D01*
X117173333Y-507300476D01*
X117078095Y-507348095D01*
X116078095Y-528382380D02*
X116078095Y-527382380D01*
X116078095Y-527858571D02*
X116649523Y-527858571D01*
X116649523Y-528382380D02*
X116649523Y-527382380D01*
X117078095Y-527477619D02*
X117125714Y-527430000D01*
X117220952Y-527382380D01*
X117459047Y-527382380D01*
X117554285Y-527430000D01*
X117601904Y-527477619D01*
X117649523Y-527572857D01*
X117649523Y-527668095D01*
X117601904Y-527810952D01*
X117030476Y-528382380D01*
X117649523Y-528382380D01*
X171958095Y-508062380D02*
X171958095Y-507062380D01*
X171958095Y-507538571D02*
X172529523Y-507538571D01*
X172529523Y-508062380D02*
X172529523Y-507062380D01*
X172910476Y-507062380D02*
X173529523Y-507062380D01*
X173196190Y-507443333D01*
X173339047Y-507443333D01*
X173434285Y-507490952D01*
X173481904Y-507538571D01*
X173529523Y-507633809D01*
X173529523Y-507871904D01*
X173481904Y-507967142D01*
X173434285Y-508014761D01*
X173339047Y-508062380D01*
X173053333Y-508062380D01*
X172958095Y-508014761D01*
X172910476Y-507967142D01*
X171958095Y-528382380D02*
X171958095Y-527382380D01*
X171958095Y-527858571D02*
X172529523Y-527858571D01*
X172529523Y-528382380D02*
X172529523Y-527382380D01*
X173434285Y-527715714D02*
X173434285Y-528382380D01*
X173196190Y-527334761D02*
X172958095Y-528049047D01*
X173577142Y-528049047D01*
X120572380Y-522303333D02*
X121286666Y-522303333D01*
X121429523Y-522350952D01*
X121524761Y-522446190D01*
X121572380Y-522589047D01*
X121572380Y-522684285D01*
X121572380Y-521303333D02*
X121572380Y-521874761D01*
X121572380Y-521589047D02*
X120572380Y-521589047D01*
X120715238Y-521684285D01*
X120810476Y-521779523D01*
X120858095Y-521874761D01*
X136787381Y-522283333D02*
X137501667Y-522283333D01*
X137644524Y-522330952D01*
X137739762Y-522426190D01*
X137787381Y-522569047D01*
X137787381Y-522664285D01*
X136882620Y-521854761D02*
X136835001Y-521807142D01*
X136787381Y-521711904D01*
X136787381Y-521473809D01*
X136835001Y-521378571D01*
X136882620Y-521330952D01*
X136977858Y-521283333D01*
X137073096Y-521283333D01*
X137215953Y-521330952D01*
X137787381Y-521902380D01*
X137787381Y-521283333D01*
X146512380Y-522283333D02*
X147226666Y-522283333D01*
X147369523Y-522330952D01*
X147464761Y-522426190D01*
X147512380Y-522569047D01*
X147512380Y-522664285D01*
X146512380Y-521902380D02*
X146512380Y-521283333D01*
X146893333Y-521616666D01*
X146893333Y-521473809D01*
X146940952Y-521378571D01*
X146988571Y-521330952D01*
X147083809Y-521283333D01*
X147321904Y-521283333D01*
X147417142Y-521330952D01*
X147464761Y-521378571D01*
X147512380Y-521473809D01*
X147512380Y-521759523D01*
X147464761Y-521854761D01*
X147417142Y-521902380D01*
X156672380Y-522283333D02*
X157386666Y-522283333D01*
X157529523Y-522330952D01*
X157624761Y-522426190D01*
X157672380Y-522569047D01*
X157672380Y-522664285D01*
X157005714Y-521378571D02*
X157672380Y-521378571D01*
X156624761Y-521616666D02*
X157339047Y-521854761D01*
X157339047Y-521235714D01*
X166832380Y-522283333D02*
X167546666Y-522283333D01*
X167689523Y-522330952D01*
X167784761Y-522426190D01*
X167832380Y-522569047D01*
X167832380Y-522664285D01*
X166832380Y-521330952D02*
X166832380Y-521807142D01*
X167308571Y-521854761D01*
X167260952Y-521807142D01*
X167213333Y-521711904D01*
X167213333Y-521473809D01*
X167260952Y-521378571D01*
X167308571Y-521330952D01*
X167403809Y-521283333D01*
X167641904Y-521283333D01*
X167737142Y-521330952D01*
X167784761Y-521378571D01*
X167832380Y-521473809D01*
X167832380Y-521711904D01*
X167784761Y-521807142D01*
X167737142Y-521854761D01*
X176992380Y-522283333D02*
X177706666Y-522283333D01*
X177849523Y-522330952D01*
X177944761Y-522426190D01*
X177992380Y-522569047D01*
X177992380Y-522664285D01*
X176992380Y-521378571D02*
X176992380Y-521569047D01*
X177040000Y-521664285D01*
X177087619Y-521711904D01*
X177230476Y-521807142D01*
X177420952Y-521854761D01*
X177801904Y-521854761D01*
X177897142Y-521807142D01*
X177944761Y-521759523D01*
X177992380Y-521664285D01*
X177992380Y-521473809D01*
X177944761Y-521378571D01*
X177897142Y-521330952D01*
X177801904Y-521283333D01*
X177563809Y-521283333D01*
X177468571Y-521330952D01*
X177420952Y-521378571D01*
X177373333Y-521473809D01*
X177373333Y-521664285D01*
X177420952Y-521759523D01*
X177468571Y-521807142D01*
X177563809Y-521854761D01*
M02*
