<?xml version="1.0" encoding="UTF-8" standalone="no"?>
<!-- Created with Inkscape (http://www.inkscape.org/) -->

<svg
   xmlns:dc="http://purl.org/dc/elements/1.1/"
   xmlns:cc="http://creativecommons.org/ns#"
   xmlns:rdf="http://www.w3.org/1999/02/22-rdf-syntax-ns#"
   xmlns:svg="http://www.w3.org/2000/svg"
   xmlns="http://www.w3.org/2000/svg"
   xmlns:sodipodi="http://sodipodi.sourceforge.net/DTD/sodipodi-0.dtd"
   xmlns:inkscape="http://www.inkscape.org/namespaces/inkscape"
   width="210mm"
   height="297mm"
   viewBox="0 0 210 297"
   version="1.1"
   id="svg852"
   inkscape:version="0.92.3 (2405546, 2018-03-11)"
   sodipodi:docname="chargeprotector.svg">
  <defs
     id="defs846" />
  <sodipodi:namedview
     id="base"
     pagecolor="#ffffff"
     bordercolor="#666666"
     borderopacity="1.0"
     inkscape:pageopacity="0.0"
     inkscape:pageshadow="2"
     inkscape:zoom="0.35"
     inkscape:cx="-125.71429"
     inkscape:cy="560"
     inkscape:document-units="mm"
     inkscape:current-layer="layer1"
     showgrid="false"
     inkscape:window-width="1600"
     inkscape:window-height="832"
     inkscape:window-x="0"
     inkscape:window-y="0"
     inkscape:window-maximized="1" />
  <metadata
     id="metadata849">
    <rdf:RDF>
      <cc:Work
         rdf:about="">
        <dc:format>image/svg+xml</dc:format>
        <dc:type
           rdf:resource="http://purl.org/dc/dcmitype/StillImage" />
        <dc:title></dc:title>
      </cc:Work>
    </rdf:RDF>
  </metadata>
  <g
     inkscape:label="Layer 1"
     inkscape:groupmode="layer"
     id="layer1">
    <path
       d="m 6.1190629,13.005126 h 1.69889 v 0.79375 h 1.69891 v -0.79375 h 1.6988901 v 0.79375 h 1.69892 v -0.79375 h 1.69889 v 0.79375 h 1.69891 v -0.79375 h 1.69889 v 0.79375 h 1.69892 v -0.79375 h 1.69889 v 0.79375 h 1.69891 v -0.79375 h 1.69889 v 0.79375 h 1.69892 v -0.79375 h 1.69889 v 0.79375 h 1.69897 v -0.79375 h 1.69889 v 0.79375 h 1.69889 v -0.79375 h 1.69889 v 0.79375 h 1.69889 v -0.79375 h 1.5875 v -2.38125 h 0.79375 V 7.7134562 h -0.79375 v -3.175 c -16.03166,-0.045 -23.07305,0.049 -35.4541701,0 -0.0532,1.80372 -1e-5,0.25713 -1e-5,3.175 h -0.79374 v 2.9104198 h 0.79375 v 2.38125 h 1.58749 v 0.79375 h 1.69893 z"
       id="path830"
       style="fill:none;stroke:#000000;stroke-width:0.26458332;stroke-opacity:1"
       inkscape:connector-curvature="0"
       sodipodi:nodetypes="ccccccccccccccccccccccccccccccccccccccccccccccccccccc" />
    <path
       d="m 4.7076629,21.716086 h 1.69892 v 0.79375 h 1.69889 v -0.79375 h 1.69892 v 0.79375 h 1.6988901 v -0.79375 h 1.69891 v 0.79375 h 1.69889 v -0.79375 h 1.69892 v 0.79375 h 1.69889 v -0.79375 h 1.69891 v 0.79375 h 1.69889 v -0.79375 h 1.69892 v 0.79375 h 1.69889 v -0.79375 h 1.69891 v 0.79375 h 1.69889 v -0.79375 h 1.69897 v 0.79375 h 1.69889 v -0.79375 h 1.69889 v 0.79375 h 1.69889 v -0.79375 h 1.69889 v 0.79375 h 2.38125 v -2.38125 h -0.79375 v -3.175 h 0.79375 v -2.38125 H 2.3264129 v 2.38125 h 0.79375 v 3.175 h -0.79375 v 2.38125 h 2.38125 z"
       id="path828"
       style="fill:none;stroke:#000000;stroke-width:0.26458332;stroke-opacity:1"
       inkscape:connector-curvature="0" />
    <path
       d="m 42.734963,11.888266 h 2.91041 v 0.79375 h 3.1749 c 0.0305,-1.29668 -1.3e-4,-1.10168 10e-5,-2.38125 0.0193,-2.9489398 0.0242,-3.5497898 -10e-5,-5.5562498 h -8.46656 v 2.38125 h -0.79375 v 3.1749998 h 0.79375 v 2.38125 h 2.38125 z"
       id="path4"
       style="fill:none;stroke:#000000;stroke-width:0.26458332;stroke-opacity:1"
       inkscape:connector-curvature="0"
       sodipodi:nodetypes="cccccccccccccc" />
    <path
       sodipodi:nodetypes="cccccccccccccc"
       inkscape:connector-curvature="0"
       style="fill:none;stroke:#000000;stroke-width:0.26458332;stroke-opacity:1"
       id="path832"
       d="m 43.264123,20.884096 h 2.91042 v 0.79375 h 3.1749 c 0.0305,-1.29668 -1.3e-4,-1.10167 10e-5,-2.38125 0.0193,-2.94894 0.0242,-3.54978 -10e-5,-5.55625 h -8.46657 v 2.38125 h -0.79375 v 3.175 h 0.79375 v 2.38125 h 2.38125 z" />
  </g>
</svg>
