<?xml version="1.0" encoding="UTF-8" standalone="no"?>
<svg
   xmlns:dc="http://purl.org/dc/elements/1.1/"
   xmlns:cc="http://creativecommons.org/ns#"
   xmlns:rdf="http://www.w3.org/1999/02/22-rdf-syntax-ns#"
   xmlns:svg="http://www.w3.org/2000/svg"
   xmlns="http://www.w3.org/2000/svg"
   xmlns:sodipodi="http://sodipodi.sourceforge.net/DTD/sodipodi-0.dtd"
   xmlns:inkscape="http://www.inkscape.org/namespaces/inkscape"
   width="1220mm"
   height="610mm"
   viewBox="-1 -141 1220 610"
   version="1.1"
   id="svg1323"
   sodipodi:docname="speakerbox-b.svg"
   inkscape:version="0.92.3 (2405546, 2018-03-11)">
  <metadata
     id="metadata1329">
    <rdf:RDF>
      <cc:Work
         rdf:about="">
        <dc:format>image/svg+xml</dc:format>
        <dc:type
           rdf:resource="http://purl.org/dc/dcmitype/StillImage" />
        <dc:title>OpenSCAD Model</dc:title>
      </cc:Work>
    </rdf:RDF>
  </metadata>
  <defs
     id="defs1327" />
  <sodipodi:namedview
     pagecolor="#ffffff"
     bordercolor="#666666"
     borderopacity="1"
     objecttolerance="10"
     gridtolerance="10"
     guidetolerance="10"
     inkscape:pageopacity="0"
     inkscape:pageshadow="2"
     inkscape:window-width="1600"
     inkscape:window-height="832"
     id="namedview1325"
     showgrid="false"
     inkscape:document-units="mm"
     inkscape:zoom="0.62680553"
     inkscape:cx="824.52285"
     inkscape:cy="412.25197"
     inkscape:window-x="0"
     inkscape:window-y="0"
     inkscape:window-maximized="1"
     inkscape:current-layer="svg1323" />
  <title
     id="title1319">OpenSCAD Model</title>
  <path
     style="fill:none;fill-opacity:1;stroke:#000000;stroke-width:0.37118483;stroke-miterlimit:4;stroke-dasharray:none;stroke-opacity:1"
     d="m 67.976921,457.14592 a 2,2 0 0 0 -2.000396,1.99987 2,2 0 0 0 2.000396,1.99988 2,2 0 0 0 0.533299,-0.0724 2,2 0 0 0 0.524516,0.0724 2,2 0 0 0 0.533818,-0.0724 2,2 0 0 0 0.525034,0.0724 2,2 0 0 0 1.999877,-1.99988 2,2 0 0 0 -1.999877,-1.99987 2,2 0 0 0 -0.532787,0.0723 2,2 0 0 0 -0.526065,-0.0723 2,2 0 0 0 -0.532268,0.0723 2,2 0 0 0 -0.525547,-0.0723 z"
     id="path1819"
     inkscape:connector-curvature="0" />
  <circle
     cy="398.965"
     cx="69.034996"
     id="circle1843"
     style="fill:none;fill-opacity:1;stroke:#000000;stroke-width:0.92796206;stroke-miterlimit:4;stroke-dasharray:none;stroke-opacity:1"
     r="5" />
  <path
     style="fill:none;stroke:#000000;stroke-width:0.99999994;stroke-opacity:1"
     inkscape:connector-curvature="0"
     d="m 156.15851,323.80332 h 6.351 v 3 h 6.491 v -3 h 6.351 v 3 h 6.491 v -3 h 6.351 v 3 h 6.491 v -3 h 6.351 v 3 h 6.491 v -3 h 6.352 v 3 h 6.491 v -3 h 6.351 v 3 h 6.491 v -3 h 6.351 v 3 h 6.491 v -3 h 6.351 v 3 h 6.491 v -3 h 6.351 v 3 h 6.491 v -3 h 6.00001 v -9 h 2.99998 v -6.07 h -2.99998 v -5.93 h 2.99998 v -6.07 h -2.99998 v -5.93 h 2.99998 v -6.07 h -2.99998 v -5.93 h 2.99998 v -6.07 h -2.99998 v -5.93 h 2.99998 v -6.07 h -2.99998 v -9 h -6.00001 v -3 h -6.491 v 3 h -6.351 v -3 h -6.491 v 3 h -6.351 v -3 h -6.491 v 3 h -6.351 v -3 h -6.491 v 3 h -6.351 v -3 h -6.491 v 3 h -6.352 v -3 h -6.491 v 3 h -6.351 v -3 h -6.491 v 3 h -6.351 v -3 h -6.491 v 3 h -6.351 v -3 h -6.491 v 3 h -6.351 v -3 h -6.491 v 3 h -6 v 9 h -3 v 6.07 h 3 v 5.93 h -3 v 6.07 h 3 v 5.93 h -3 v 6.07 h 3 v 5.93 h -3 v 6.07 h 3 v 5.93 h -3 v 6.07 h 3 v 9 h 6 v 3 h 6.491 z"
     id="path3340" />
  <path
     style="fill:none;stroke:#000000;stroke-width:0.99999994;stroke-opacity:1"
     inkscape:connector-curvature="0"
     d="m 14.4911,323.80332 h 6.351 v 3 h 6.4911 v -3 h 6.351 v 3 h 6.4911 v -3 h 6.351 v 3 h 6.4911 v -3 h 6.351 v 3 h 6.4911 v -3 h 6.351 v 3 h 6.4911 v -3 h 6.351 v 3 h 6.4911 v -3 h 6.351 v 3 h 6.4913 v -3 h 6.351 v 3 h 6.491 v -3 h 6.351 v 3 h 6.491 v -3 h 6 v -9 h 3 v -6.07 h -3 v -5.93 h 3 v -6.07 h -3 v -5.93 h 3 v -6.07 h -3 v -5.93 h 3 v -6.07 h -3 v -5.93 h 3 v -6.07 h -3 v -9 h -6 v -3 h -6.491 v 3 h -6.351 v -3 h -6.491 v 3 h -6.351 v -3 h -6.4913 v 3 h -6.351 v -3 h -6.4911 v 3 h -6.351 v -3 h -6.4911 v 3 h -6.351 v -3 h -6.4911 v 3 h -6.351 v -3 h -6.4911 v 3 h -6.351 v -3 h -6.4911 v 3 h -6.351 v -3 h -6.4911 v 3 h -6.351 v -3 H 8 v 3 H 2 v 9 h -3 v 6.07 h 3 v 5.93 h -3 v 6.07 h 3 v 5.93 h -3 v 6.07 h 3 v 5.93 h -3 v 6.07 h 3 v 5.93 h -3 v 6.07 h 3 v 9 h 5.99998 v 3 h 6.49112 z"
     id="path3338" />
  <path
     style="fill:none;stroke:#000000;stroke-width:0.99999994;stroke-opacity:1"
     inkscape:connector-curvature="0"
     d="m 153.64657,465.99999 h 5.93 V 469 h 6.07002 v -3.00001 h 5.93 V 469 h 6.06999 v -3.00001 h 5.93 V 469 h 6.06999 v -3.00001 h 5.93 V 469 h 6.07002 v -3.00001 h 5.93 V 469 h 9.07 v -8.99999 h 3 v -6.49111 h -3 v -6.351 h 3 v -6.4911 h -3 v -6.351 h 3 v -6.4911 h -3 v -6.351 h 3 v -6.4911 h -3 v -6.351 h 3 v -6.4911 h -3 v -6.351 h 3 v -6.4911 h -3 v -6.351 h 3 v -6.4911 h -3 v -6.351 h 3 v -6.4913 h -3 v -6.351 h 3 v -6.491 h -3 v -6.351 h 3 v -6.491 h -3 v -9 h -9.07 v 3 h -5.93 v -3 h -6.07002 v 3 h -5.93 v -3 h -6.06999 v 3 h -5.93 v -3 h -6.06999 v 3 h -5.93 v -3 h -6.07002 v 3 h -5.93 v -3 h -9.07 v 9 h -3 v 6.491 h 3 v 6.351 h -3 v 6.491 h 3 v 6.351 h -3 v 6.4913 h 3 v 6.351 h -3 v 6.4911 h 3 v 6.351 h -3 v 6.4911 h 3 v 6.351 h -3 v 6.4911 h 3 v 6.351 h -3 v 6.4911 h 3 v 6.351 h -3 v 6.4911 h 3 v 6.351 h -3 v 6.4911 h 3 v 6.351 h -3 V 460 h 3 v 9 h 9.07 z"
     id="path3336" />
  <path
     style="fill:none;stroke:#000000;stroke-width:0.99999994;stroke-opacity:1"
     inkscape:connector-curvature="0"
     d="m 234.90156,465.99999 h 5.93 V 469 h 6.07001 v -3.00001 h 5.93001 V 469 h 6.06999 v -3.00001 h 5.93 V 469 h 6.06999 v -3.00001 h 5.93 V 469 h 6.07002 v -3.00001 h 5.93 V 469 h 9.06999 v -8.99999 h 3.00001 v -6.49111 h -3.00001 v -6.351 h 3.00001 v -6.4911 h -3.00001 v -6.351 h 3.00001 v -6.4911 h -3.00001 v -6.351 h 3.00001 v -6.4911 h -3.00001 v -6.351 h 3.00001 v -6.4911 h -3.00001 v -6.351 h 3.00001 v -6.4911 h -3.00001 v -6.351 h 3.00001 v -6.4911 h -3.00001 v -6.351 h 3.00001 v -6.4913 h -3.00001 v -6.351 h 3.00001 v -6.491 h -3.00001 v -6.351 h 3.00001 v -6.491 h -3.00001 v -9 h -9.06999 v 3 h -5.93 v -3 h -6.07002 v 3 h -5.93 v -3 h -6.06999 v 3 h -5.93 v -3 h -6.06999 v 3 h -5.93001 v -3 h -6.07001 v 3 h -5.93 v -3 h -9.07 v 9 h -3 v 6.491 h 3 v 6.351 h -3 v 6.491 h 3 v 6.351 h -3 v 6.4913 h 3 v 6.351 h -3 v 6.4911 h 3 v 6.351 h -3 v 6.4911 h 3 v 6.351 h -3 v 6.4911 h 3 v 6.351 h -3 v 6.4911 h 3 v 6.351 h -3 v 6.4911 h 3 v 6.351 h -3 v 6.4911 h 3 v 6.351 h -3 V 460 h 3 v 9 h 9.07 z"
     id="path3334" />
  <path
     style="fill:none;stroke:#000000;stroke-width:0.99999994;stroke-opacity:1"
     inkscape:connector-curvature="0"
     d="m 8.07,465.99999 h 6.351 V 469 h 6.491 v -3.00001 h 6.351 V 469 h 6.491 v -3.00001 h 6.351 V 469 h 6.491 v -3.00001 h 6.351 V 469 h 6.491 v -3.00001 h 6.351 V 469 h 6.492 v -3.00001 h 6.351 V 469 h 6.491 v -3.00001 h 6.351 V 469 h 6.491 v -3.00001 h 6.351 V 469 h 6.491 v -3.00001 h 6.351 V 469 h 6.49099 v -3.00001 h 6.351 V 469 h 9.07 v -9.06999 h -2.99998 V 453.579 h 2.99998 v -6.4911 h -2.99998 v -6.351 h 2.99998 v -6.4911 h -2.99998 v -6.3511 h 2.99998 v -6.491 h -2.99998 v -6.3511 h 2.99998 v -6.491 h -2.99998 v -6.3511 h 2.99998 v -6.491 h -2.99998 v -6.3511 h 2.99998 v -6.491 h -2.99998 v -6.3511 h 2.99998 v -6.491 h -2.99998 v -6.3513 h 2.99998 v -6.491 h -2.99998 v -6.351 h 2.99998 v -6.491 h -2.99998 V 338 h 2.99998 v -9.07 h -9.07 v 3 h -6.351 v -3 H 117.158 v 3 h -6.351 v -3 h -6.491 v 3 h -6.351 v -3 h -6.491 v 3 h -6.351 v -3 h -6.491 v 3 h -6.351 v -3 h -6.492 v 3 h -6.351 v -3 h -6.491 v 3 h -6.351 v -3 h -6.491 v 3 h -6.351 v -3 h -6.491 v 3 h -6.351 v -3 h -6.491 v 3 H 8.07 v -3 H -1 V 338 h 3 v 6.351 h -3 v 6.491 h 3 v 6.351 h -3 v 6.491 h 3 v 6.3513 h -3 v 6.491 h 3 v 6.3511 h -3 v 6.491 h 3 v 6.3511 h -3 v 6.491 h 3 v 6.3511 h -3 v 6.491 h 3 v 6.3511 h -3 v 6.491 h 3 v 6.3511 h -3 v 6.49099 h 3 v 6.35111 h -3 v 6.49099 H 2 V 459.93 H -1 V 469 h 9.07 z"
     id="path2777" />
</svg>
